<?xml version="1.0" standalone="no"?><!DOCTYPE svg PUBLIC "-//W3C//DTD SVG 1.1//EN" "http://www.w3.org/Graphics/SVG/1.1/DTD/svg11.dtd"><svg t="1612864382189" class="icon" viewBox="0 0 1024 1024" version="1.1" xmlns="http://www.w3.org/2000/svg" p-id="2561" xmlns:xlink="http://www.w3.org/1999/xlink" width="200" height="200"><defs><style type="text/css"></style></defs><path d="M843.776 730.624c-18.944 0-36.352 6.656-50.176 17.408l-105.472-60.928c6.656-18.944 10.24-39.424 10.24-60.416 0-81.408-52.224-150.528-124.928-176.128v-99.328c37.376-19.968 62.976-59.392 62.976-104.96 0-65.536-53.76-118.784-119.808-118.784-66.048 0-119.808 53.248-119.808 118.784 0 40.448 20.48 76.288 51.712 97.792v106.496c-72.704 25.6-124.928 94.72-124.928 176.128 0 20.992 3.584 41.472 10.24 60.416l-105.472 60.928c-13.824-10.752-31.232-17.408-50.176-17.408-46.08 0-82.944 37.376-82.944 82.944 0 46.08 37.376 82.944 82.944 82.944 46.08 0 82.944-37.376 82.944-82.944 0-11.776-2.56-22.528-6.656-32.768l97.28-56.32c32.768 53.248 91.648 89.088 159.232 89.088s125.952-35.84 159.232-89.088l97.28 56.32c-4.096 10.24-6.656 20.992-6.656 32.768 0 46.08 37.376 82.944 82.944 82.944 46.08 0 82.944-37.376 82.944-82.944 0-45.568-37.376-82.944-82.944-82.944z m-353.792-368.64c8.704 2.048 17.408 3.072 26.624 3.072 5.12 0 10.24-0.512 14.848-1.024v76.288c-6.656-0.512-13.824-1.024-20.992-1.024-7.168 0-13.824 0.512-20.992 1.024l0.512-78.336z m20.992 410.112c-80.384 0-145.408-65.024-145.408-145.408s65.024-145.408 145.408-145.408 145.408 65.024 145.408 145.408-65.024 145.408-145.408 145.408z" fill="" p-id="2562"></path></svg>