<?xml version="1.0" standalone="no"?><!DOCTYPE svg PUBLIC "-//W3C//DTD SVG 1.1//EN" "http://www.w3.org/Graphics/SVG/1.1/DTD/svg11.dtd"><svg t="1612864529086" class="icon" viewBox="0 0 1024 1024" version="1.1" xmlns="http://www.w3.org/2000/svg" p-id="5391" xmlns:xlink="http://www.w3.org/1999/xlink" width="200" height="200"><defs><style type="text/css"></style></defs><path d="M512 0S136.533333 427.918222 136.533333 640 304.583111 1024 512 1024s375.466667-171.918222 375.466667-384S512 0 512 0z m0 957.212444c-170.780444 0-309.134222-142.108444-309.134222-317.553777S512 89.088 512 89.088 821.134222 464.213333 821.134222 639.658667 682.780444 957.212444 512 957.212444z m0 0v-22.300444A287.197867 287.197867 0 0 1 224.938667 647.509333c0-158.606222 149.162667-78.279111 287.061333 0 138.467556 78.734222 287.061333-158.606222 287.061333 0A287.197867 287.197867 0 0 1 512 934.912z m0 0" p-id="5392"></path></svg>