<?xml version="1.0" standalone="no"?><!DOCTYPE svg PUBLIC "-//W3C//DTD SVG 1.1//EN" "http://www.w3.org/Graphics/SVG/1.1/DTD/svg11.dtd"><svg t="1612864277046" class="icon" viewBox="0 0 1024 1024" version="1.1" xmlns="http://www.w3.org/2000/svg" p-id="1143" xmlns:xlink="http://www.w3.org/1999/xlink" width="200" height="200"><defs><style type="text/css"></style></defs><path d="M535.04 721.92C417.792 721.92 322.56 626.688 322.56 509.44S417.792 296.96 535.04 296.96 747.52 392.192 747.52 509.44 652.288 721.92 535.04 721.92z m0-373.76C445.952 348.16 373.76 420.352 373.76 509.44S445.952 670.72 535.04 670.72 696.32 598.528 696.32 509.44 624.128 348.16 535.04 348.16zM363.52 314.88c-49.152 0-89.6-40.448-89.6-89.6S314.368 135.68 363.52 135.68 453.12 176.128 453.12 225.28 412.672 314.88 363.52 314.88z m0-143.36c-29.696 0-53.76 24.064-53.76 53.76S333.824 279.04 363.52 279.04 417.28 254.976 417.28 225.28 393.216 171.52 363.52 171.52zM197.12 540.16c-36.864 0-66.56-29.696-66.56-66.56s29.696-66.56 66.56-66.56 66.56 29.696 66.56 66.56-29.696 66.56-66.56 66.56z m0-97.28c-16.896 0-30.72 13.824-30.72 30.72s13.824 30.72 30.72 30.72 30.72-13.824 30.72-30.72-13.824-30.72-30.72-30.72zM266.24 939.52c-77.824 0-140.8-62.976-140.8-140.8s62.976-140.8 140.8-140.8 140.8 62.976 140.8 140.8-62.976 140.8-140.8 140.8z m0-235.52c-52.224 0-94.72 42.496-94.72 94.72s42.496 94.72 94.72 94.72 94.72-42.496 94.72-94.72-42.496-94.72-94.72-94.72zM760.32 867.84c-42.496 0-76.8-34.304-76.8-76.8s34.304-76.8 76.8-76.8 76.8 34.304 76.8 76.8-34.304 76.8-76.8 76.8z m0-117.76c-22.528 0-40.96 18.432-40.96 40.96s18.432 40.96 40.96 40.96 40.96-18.432 40.96-40.96-18.432-40.96-40.96-40.96zM839.68 453.12c-26.624 0-48.64-22.016-48.64-48.64s22.016-48.64 48.64-48.64 48.64 22.016 48.64 48.64-22.016 48.64-48.64 48.64z m0-71.68c-12.8 0-23.04 10.24-23.04 23.04s10.24 23.04 23.04 23.04 23.04-10.24 23.04-23.04-10.24-23.04-23.04-23.04zM673.28 166.4c-22.528 0-40.96-18.432-40.96-40.96s18.432-40.96 40.96-40.96 40.96 18.432 40.96 40.96-18.432 40.96-40.96 40.96z m0-56.32c-8.704 0-15.36 6.656-15.36 15.36s6.656 15.36 15.36 15.36 15.36-6.656 15.36-15.36-6.656-15.36-15.36-15.36z" p-id="1144"></path></svg>