<?xml version="1.0" standalone="no"?><!DOCTYPE svg PUBLIC "-//W3C//DTD SVG 1.1//EN" "http://www.w3.org/Graphics/SVG/1.1/DTD/svg11.dtd"><svg t="1612864195377" class="icon" viewBox="0 0 1024 1024" version="1.1" xmlns="http://www.w3.org/2000/svg" p-id="867" width="200" height="200" xmlns:xlink="http://www.w3.org/1999/xlink"><defs><style type="text/css"></style></defs><path d="M472.7 756.3c118.5 0 214.5-96 214.5-214.5s-96-214.5-214.5-214.5-214.5 96-214.5 214.5 96 214.5 214.5 214.5z m0-61.3c-54.7 0-105.3-29.2-132.7-76.6-27.4-47.4-27.4-105.8 0-153.2 27.4-47.4 78-76.6 132.7-76.6 84.6 0 153.2 68.6 153.2 153.2S557.3 695 472.7 695z m0 0M748.5 878.9c21.9 0 42.1-11.7 53.1-30.6 10.9-19 10.9-42.3 0-61.3s-31.2-30.6-53.1-30.6c-33.8 0-61.3 27.4-61.3 61.3 0 33.7 27.5 61.2 61.3 61.2z m0-40.9c-11.3 0-20.4-9.1-20.4-20.4s9.1-20.4 20.4-20.4c11.3 0 20.4 9.1 20.4 20.4s-9.1 20.4-20.4 20.4z m0-388.2c33.8 0 61.3-27.4 61.3-61.3 0-33.8-27.4-61.3-61.3-61.3-33.8 0-61.3 27.4-61.3 61.3s27.5 61.3 61.3 61.3z m0-40.8c-7.3 0-14-3.9-17.7-10.2-3.6-6.3-3.6-14.1 0-20.4 3.6-6.3 10.4-10.2 17.7-10.2 11.3 0 20.4 9.1 20.4 20.4 0 11.2-9.1 20.4-20.4 20.4zM625.9 204.7c33.8 0 61.3-27.4 61.3-61.3 0-33.8-27.4-61.3-61.3-61.3-33.8 0-61.3 27.4-61.3 61.3s27.5 61.3 61.3 61.3z m0-40.9c-7.3 0-14-3.9-17.7-10.2-3.6-6.3-3.6-14.1 0-20.4 3.6-6.3 10.4-10.2 17.7-10.2 11.3 0 20.4 9.1 20.4 20.4s-9.1 20.4-20.4 20.4zM135.6 511.1c21.9 0 42.1-11.7 53.1-30.6 10.9-19 10.9-42.3 0-61.3s-31.2-30.6-53.1-30.6c-33.8 0-61.3 27.4-61.3 61.3 0 33.8 27.5 61.2 61.3 61.2z m0-40.8c-7.3 0-14-3.9-17.7-10.2-3.6-6.3-3.6-14.1 0-20.4 3.6-6.3 10.4-10.2 17.7-10.2 11.3 0 20.4 9.1 20.4 20.4 0 11.2-9.1 20.4-20.4 20.4z m0 0" p-id="868"></path></svg>