<?xml version="1.0" standalone="no"?><!DOCTYPE svg PUBLIC "-//W3C//DTD SVG 1.1//EN" "http://www.w3.org/Graphics/SVG/1.1/DTD/svg11.dtd"><svg t="1612864478208" class="icon" viewBox="0 0 1024 1024" version="1.1" xmlns="http://www.w3.org/2000/svg" p-id="4496" xmlns:xlink="http://www.w3.org/1999/xlink" width="200" height="200"><defs><style type="text/css"></style></defs><path d="M512 85.312a128 128 0 0 1 128 128v303.232a85.312 85.312 0 0 0 24.32 59.712 213.248 213.248 0 1 1-304.512 0 85.312 85.312 0 0 0 24.32-59.712V213.312a128 128 0 0 1 127.872-128z m0-85.312a213.248 213.248 0 0 0-213.248 213.248V516.48a298.56 298.56 0 1 0 426.496 0V213.248A213.248 213.248 0 0 0 512 0z m42.624 651.2a85.312 85.312 0 1 1-85.312 0V213.248a42.624 42.624 0 0 1 85.312 0z" p-id="4497"></path></svg>